<svg xmlns="http://www.w3.org/2000/svg" viewBox="0 0 137.76 9.23"><defs><style>.cls-1{fill:none;stroke:#ffffff;stroke-miterlimit:6;}</style></defs><g id="Layer_2" data-name="Layer 2"><g id="Layer_1-2" data-name="Layer 1"><polyline class="cls-1" points="0 4.62 22.51 4.62 61.33 2.38"/><polyline class="cls-1" points="0 4.62 22.51 4.62 61.33 6.85"/><path class="cls-1" d="M68.88,5a6.3,6.3,0,0,1-8.35,3.12A6.33,6.33,0,0,1,65,4.61a6.29,6.29,0,0,1-4.43-3.54,6.3,6.3,0,0,1,8.35,3.12A.94.94,0,0,1,68.88,5Z"/><polyline class="cls-1" points="137.76 4.62 115.25 4.62 76.43 2.38"/><polyline class="cls-1" points="137.76 4.62 115.25 4.62 76.43 6.85"/><path class="cls-1" d="M68.88,5a6.3,6.3,0,0,0,8.35,3.12A6.31,6.31,0,0,0,72.8,4.61a6.27,6.27,0,0,0,4.43-3.54,6.3,6.3,0,0,0-8.35,3.12A.94.94,0,0,0,68.88,5Z"/></g></g></svg>